<svg width="29" height="29" viewBox="0 0 29 29" fill="none" xmlns="http://www.w3.org/2000/svg">
<path d="M14.5 26.7008C21.2383 26.7008 26.7008 21.2383 26.7008 14.5C26.7008 7.76163 21.2383 2.29912 14.5 2.29912C7.76163 2.29912 2.29913 7.76163 2.29913 14.5C2.29913 21.2383 7.76163 26.7008 14.5 26.7008Z" fill="#93CD01" stroke="#93CD01" stroke-width="3.127"/>
<path d="M26.7107 17.3736L18.8596 9.65488L17.6775 11.7435L16.4682 12.6075L15.9248 11.9327L10.3243 9.77686L10.9821 20.5197L17.0582 26.8306C17.0582 26.8306 19.8118 25.932 21.019 25.1602C22.368 24.2978 23.5751 23.1804 24.5709 21.9265C25.2363 21.0886 25.7088 20.1052 26.1382 19.1252C26.3847 18.5626 26.7107 17.3736 26.7107 17.3736Z" fill="#79A900" stroke="#79A900" stroke-width="0.264583"/>
<path d="M16.8361 22.1303C16.9263 22.0762 19.4076 20.6591 20.2013 19.4696C20.8714 18.4654 21.1583 17.191 21.185 15.9841C21.2156 14.6017 20.7565 13.2269 20.236 11.9458C19.9007 11.1204 18.8596 9.65488 18.8596 9.65488C18.8596 9.65488 17.4089 11.1381 16.847 12.002C16.1091 13.1366 15.4212 14.3528 15.1011 15.6678C14.7868 16.9591 14.7906 18.3358 14.9694 19.6527C15.0657 20.3621 15.61 21.7027 15.61 21.7027C15.671 21.7342 16.6208 20.552 16.956 19.8731C17.462 18.8485 17.6527 17.6939 17.9136 16.5814C18.0864 15.8444 18.3146 14.3463 18.3146 14.3463C18.3146 14.3463 18.5132 15.4509 18.5196 16.0094C18.5278 16.7325 18.4483 17.4595 18.3031 18.1678C18.1458 18.9355 17.8754 19.6775 17.5987 20.4107C17.3773 20.9974 16.8361 22.1303 16.8361 22.1303Z" fill="white" stroke="white" stroke-width="0.264583"/>
<path d="M14.2763 22.0703C14.2637 21.0792 14.2123 20.555 14.0831 19.8099C13.8471 18.4494 13.3494 16.8732 13.0255 15.8048C12.7047 14.7469 12.2204 13.7424 11.7273 12.7529C11.3497 11.9954 10.9363 11.4005 10.4602 10.5526C12.0234 12.1539 13.5354 13.8185 14.4278 16.2465C14.7412 14.7856 15.1194 13.3327 15.9248 11.9327C15.015 10.7355 13.6922 9.68842 12.3787 8.82551C11.0717 7.96692 8.14016 6.81481 8.14016 6.81481C8.14016 6.81481 7.45369 9.69473 7.36393 11.1649C7.27992 12.5412 7.30438 13.9462 7.58981 15.2952C7.79747 16.2766 8.11021 17.2678 8.65671 18.109C9.34915 19.1748 10.314 20.0784 11.365 20.793C12.2413 21.3889 14.2763 22.0703 14.2763 22.0703Z" fill="white" stroke="white" stroke-width="0.264583"/>
<path d="M14.5 27C21.4036 27 27 21.4036 27 14.5C27 7.59644 21.4036 2 14.5 2C7.59644 2 2 7.59644 2 14.5C2 21.4036 7.59644 27 14.5 27Z" stroke="#93CD01" stroke-width="1.02451"/>
</svg>
